<?xml version="1.0" standalone="no"?>
<!DOCTYPE svg PUBLIC "-//W3C//DTD SVG 20010904//EN"
 "http://www.w3.org/TR/2001/REC-SVG-20010904/DTD/svg10.dtd">
<svg version="1.0" xmlns="http://www.w3.org/2000/svg"
<style>
  path { fill: black; }
  @media (prefers-color-scheme: dark) {
    path { fill: white; }
  }
</style>
 width="300.000000pt" height="277.000000pt" viewBox="0 0 300.000000 277.000000"
 preserveAspectRatio="xMidYMid meet">
<g transform="translate(0.000000,277.000000) scale(0.100000,-0.100000)"
stroke="none">
<path d="M1408 1543 c-9 -10 -18 -27 -19 -37 -4 -17 -12 -19 -65 -17 -57 2
-65 0 -98 -30 -30 -26 -36 -38 -35 -68 0 -20 -3 -57 -6 -82 -7 -42 -5 -47 24
-72 30 -25 36 -26 148 -25 65 0 125 5 134 11 13 8 25 8 44 -1 42 -19 138 -15
163 7 44 37 12 121 -46 121 -25 0 -27 8 -11 44 26 56 -32 140 -104 150 -23 4
-58 9 -77 12 -27 4 -39 1 -52 -13z m79 -153 l2 -140 -32 0 -32 0 -3 140 -4
140 34 0 34 0 1 -140z m95 87 c-3 -22 1 -27 17 -27 16 0 21 -6 21 -25 0 -18
-5 -25 -20 -25 -17 0 -20 -7 -20 -51 0 -42 3 -52 20 -56 11 -3 20 -13 20 -23
0 -36 -80 -31 -94 5 -3 9 -6 41 -6 71 0 30 -4 54 -10 54 -5 0 -10 11 -10 25 0
14 5 25 10 25 6 0 10 12 10 28 0 24 3 27 32 26 30 -1 33 -4 30 -27z m-198 -51
c8 -11 16 -56 18 -98 l5 -78 -28 0 c-15 0 -29 5 -31 11 -2 7 -14 4 -34 -7 -38
-22 -81 -13 -96 21 -19 43 2 72 67 90 33 10 55 22 55 31 0 19 -49 18 -56 -1
-8 -20 -64 -20 -64 0 0 55 134 80 164 31z m306 -146 c0 -27 -3 -30 -30 -30
-27 0 -30 3 -30 30 0 27 3 30 30 30 27 0 30 -3 30 -30z"/>
<path d="M1308 1338 c-37 -13 -39 -48 -3 -48 18 0 26 7 31 25 8 32 5 34 -28
23z"/>
</g>
</svg>
