<?xml version="1.0" standalone="no"?>
<!DOCTYPE svg PUBLIC "-//W3C//DTD SVG 20010904//EN"
 "http://www.w3.org/TR/2001/REC-SVG-20010904/DTD/svg10.dtd">
<svg version="1.0" xmlns="http://www.w3.org/2000/svg"
 width="900.000000pt" height="642.000000pt" viewBox="0 0 900.000000 642.000000"
 preserveAspectRatio="xMidYMid meet">
 <style>
  path { fill: black; }
  @media (prefers-color-scheme: dark) {
    path { fill: white; }
  }
</style>
<g transform="translate(0.000000,642.000000) scale(0.100000,-0.100000)"
fill="#000000" stroke="none">
<path d="M4220 4500 c-78 -15 -162 -89 -174 -154 -4 -18 -8 -183 -11 -367 -5
-346 -8 -389 -29 -389 -7 0 -36 29 -64 64 -101 124 -152 161 -301 216 -113 41
-215 53 -404 47 -164 -5 -284 -26 -382 -66 -69 -28 -198 -111 -248 -159 -130
-125 -222 -336 -186 -424 13 -33 95 -128 109 -128 4 0 29 -9 54 -21 l47 -20
-68 -68 c-127 -125 -157 -171 -200 -299 -22 -69 -24 -87 -19 -172 7 -103 26
-178 62 -249 79 -159 258 -279 454 -306 52 -8 98 -11 103 -8 5 3 41 7 81 8 85
4 163 29 303 96 56 27 106 49 112 49 5 0 29 -13 53 -29 24 -16 70 -42 103 -57
56 -27 67 -28 190 -27 85 0 152 6 195 17 110 28 117 29 167 10 41 -16 75 -19
233 -17 102 1 192 3 200 5 31 8 98 58 128 96 34 42 45 96 56 266 3 44 10 84
15 89 11 11 15 1 41 -78 15 -45 46 -119 63 -152 7 -12 40 -51 74 -86 71 -73
191 -139 283 -156 113 -21 222 -23 300 -7 41 9 89 16 105 16 17 0 39 7 49 15
24 18 77 20 94 3 7 -7 72 -11 204 -11 210 -1 232 4 297 59 62 52 71 89 71 286
0 232 -1 238 -63 294 -29 26 -63 51 -77 56 -35 14 -362 12 -408 -3 -20 -6 -46
-19 -57 -29 -84 -73 -152 -89 -197 -46 l-26 23 0 263 0 263 23 23 c13 13 32
24 41 24 32 0 105 42 145 84 50 51 60 88 63 234 2 106 0 121 -22 163 -13 25
-42 61 -65 81 -39 32 -58 40 -128 55 -39 7 -57 59 -62 179 -3 63 -11 112 -20
131 -21 40 -100 111 -134 120 -15 4 -118 8 -228 8 -190 0 -202 -1 -236 -23
-40 -24 -119 -106 -119 -122 0 -5 -6 -10 -14 -10 -14 0 -26 60 -26 132 0 21
-7 53 -16 71 -24 46 -94 121 -124 130 -31 11 -363 16 -410 7z m439 -121 c4 -8
3 -160 -3 -339 -11 -365 -11 -388 1 -1240 4 -338 5 -621 2 -629 -5 -11 -51
-14 -250 -13 -134 1 -247 2 -251 2 -4 0 -6 62 -5 138 1 75 1 575 -1 1110 -2
535 -1 976 2 980 2 4 115 7 251 6 203 0 249 -3 254 -15z m775 -220 c0 -24 -2
-125 -5 -224 l-4 -180 85 2 c47 1 105 5 130 8 25 2 51 1 58 -4 10 -6 14 -52
15 -195 l2 -186 -145 0 -145 0 2 -362 c3 -418 8 -457 59 -489 30 -18 45 -20
112 -16 42 3 86 7 97 9 19 3 20 -3 23 -180 2 -141 0 -183 -10 -187 -7 -2 -74
-9 -148 -14 -370 -28 -519 46 -606 299 -18 51 -19 89 -19 497 l0 443 -113 0
-112 0 2 188 3 187 102 0 c56 0 106 5 111 10 5 6 6 95 1 220 -4 115 -6 212 -4
215 2 3 117 5 257 4 l253 -1 -1 -44z m-1894 -375 c122 -30 192 -67 265 -141
79 -78 118 -161 150 -313 4 -19 10 -229 14 -467 3 -237 9 -434 12 -437 4 -5
42 -12 82 -15 4 -1 7 -52 7 -115 0 -87 -3 -116 -15 -126 -9 -8 -74 -14 -192
-17 -178 -6 -178 -5 -235 22 -63 30 -103 78 -114 138 -9 53 -27 56 -66 11 -89
-102 -194 -163 -335 -194 -115 -26 -332 -7 -418 38 -191 97 -286 323 -226 533
22 76 32 98 75 155 35 47 126 117 189 146 23 11 50 24 60 29 50 27 125 47 326
89 79 17 152 35 162 40 10 6 26 10 36 10 26 0 91 35 125 66 79 77 46 187 -69
225 -54 17 -207 6 -259 -20 -53 -26 -101 -91 -110 -148 -3 -24 -10 -46 -15
-49 -5 -3 -115 -6 -244 -7 l-235 -2 0 27 c0 38 57 204 86 250 61 95 156 173
270 218 32 13 63 28 69 32 5 4 24 8 41 8 18 0 45 5 61 12 68 29 385 30 503 2z
m-262 -475 c2 -10 -10 -20 -36 -28 -44 -15 -87 -12 -87 7 0 35 116 55 123 21z
m2990 -912 l-3 -240 -228 1 c-126 0 -232 3 -235 7 -4 3 -5 86 -4 183 2 107 -1
197 -8 226 -7 35 -8 51 0 56 6 3 116 6 245 6 l235 0 -2 -239z"/>
<path d="M3420 2926 c-14 -8 -63 -23 -110 -35 -153 -39 -194 -53 -246 -87
-110 -73 -132 -202 -51 -290 25 -26 47 -38 98 -50 65 -16 69 -16 137 5 80 25
145 76 177 137 10 22 24 46 31 54 12 16 32 140 37 225 2 47 0 50 -23 52 -14 2
-36 -4 -50 -11z m-90 -213 c0 -31 -32 -72 -74 -97 -75 -44 -136 -31 -136 28 0
54 58 93 160 108 26 4 50 -15 50 -39z"/>
</g>
</svg>
